<?xml version="1.0" encoding="utf-8"?>
<!-- Generator: Adobe Illustrator 27.0.0, SVG Export Plug-In . SVG Version: 6.00 Build 0)  -->
<svg version="1.1" id="Layer_1" xmlns="http://www.w3.org/2000/svg" xmlns:xlink="http://www.w3.org/1999/xlink" x="0px" y="0px"
	 viewBox="0 0 652.4 560" style="enable-background:new 0 0 652.4 560;" xml:space="preserve" width="652.4" height="560">
<style type="text/css">
	.st0{fill:none;}
	.st1{opacity:0.2;fill:#2375E5;fill-opacity:0.502;enable-background:new    ;}
	.st2{opacity:0.15;fill:#2375E5;enable-background:new    ;}
	.st3{fill:#4000FF;}
	.st4{opacity:0.55;fill:#2375E5;enable-background:new    ;}
	.st5{opacity:0.15;enable-background:new    ;}
	.st6{opacity:0.15;}
	.st7{fill:#061027;}
	.st8{fill:#455A64;}
	.st9{fill:#37474F;}
	.st10{opacity:0.9;fill:#FFFFFF;enable-background:new    ;}
	.st11{opacity:0.1;fill:#2375E5;enable-background:new    ;}
	.st12{fill:#E0E0E0;}
	.st13{fill:#2375E5;fill-opacity:0.502;}
	.st14{opacity:0.3;enable-background:new    ;}
	.st15{opacity:0.5;fill:#2375E5;enable-background:new    ;}
	.st16{fill:#FFBDA7;}
	.st17{fill:#FFFFFF;}
	.st18{opacity:0.1;enable-background:new    ;}
	.st19{fill:#F0997A;}
</style>
<rect id="_x34_04_1" x="0" y="0" class="st0" width="652.4" height="560"/>
<path id="Vector_1" class="st1" d="M334.9,303.5v-14.9l-21.5-12.4v-14.9L292,248.9V234l-21.5-12.4l-92.9,50.6l24.1,13.8V301
	l21.5,12.4v14.9l21.5,12.4v14.9l94.2,135.9c93.2-15.7,164.4-63.2,194.4-124.4c3.5-7.1,6.6-14.3,9.2-21.4L334.9,303.5z"/>
<path id="Vector_2" class="st2" d="M202.6,13.6C139.7,49.7,88.7,146.6,88.7,230c0,49.5,18,83.2,45.8,94.8l11.5-6.7l113-65.2
	l11.8-6.8c27.7-43.5,45.5-97.6,45.5-147C316.4,15.8,265.5-22.5,202.6,13.6z"/>
<path id="Vector_3" class="st2" d="M202.6,37.7C149.8,68.1,107,149.5,107,219.6s42.8,102.3,95.6,72s95.7-111.7,95.7-181.9
	C298.2,39.6,255.4,7.4,202.6,37.7z"/>
<path id="Vector_4" class="st2" d="M202.6,54.7C157,81,120,151.5,120,212.2s37,88.6,82.5,62.3s82.5-96.8,82.5-157.5
	C285.1,56.4,248.2,28.4,202.6,54.7z"/>
<path id="Vector_5" class="st3" d="M153.9,215.1c0-52.5,32-113.6,71.5-136.5c17.4-10,33.4-11,45.7-4.3L255,65.1
	c-12.5-7.3-28.9-6.7-46.8,3.7c-39.5,22.8-71.5,83.9-71.5,136.5c0,28.8,9.6,49.1,24.7,57.8c2.6,1.5,12.3,7.1,16.2,9.3
	C163.1,263.2,153.9,243.3,153.9,215.1z"/>
<path id="Vector_6" class="st4" d="M153.9,215.1c0-52.5,32-113.6,71.5-136.5c17.4-10,33.4-11,45.7-4.3L255,65.1
	c-12.5-7.3-28.9-6.7-46.8,3.7c-39.5,22.8-71.5,83.9-71.5,136.5c0,28.8,9.6,49.1,24.7,57.8c2.6,1.5,12.3,7.1,16.2,9.3
	C163.1,263.2,153.9,243.3,153.9,215.1z"/>
<path id="Vector_7" class="st3" d="M253.5,89.6c6.2,8.3,9.6,21.5,8.8,38.7c-1.8,42.2-27.5,92.4-57.4,112c-9.1,6-17.5,8.5-24.8,7.8
	c9.1,12,24.3,13.7,41.9,2.2c29.9-19.6,55.6-69.7,57.4-112C280.8,109,270.1,91.2,253.5,89.6z"/>
<path id="Vector_8" class="st5" d="M253.5,89.6c6.2,8.3,9.6,21.5,8.8,38.7c-1.8,42.2-27.5,92.4-57.4,112c-9.1,6-17.5,8.5-24.8,7.8
	c9.1,12,24.3,13.7,41.9,2.2c29.9-19.6,55.6-69.7,57.4-112C280.8,109,270.1,91.2,253.5,89.6z"/>
<path id="Vector_9" class="st3" d="M172.1,102.6l17.2,9.9l1.4-1.8l-17.2-9.9C173,101.4,172.6,101.9,172.1,102.6z"/>
<path id="Vector_10" class="st3" d="M164.3,160l-17.3-9.9c-0.3,0.7-0.4,1.4-0.7,2l17.2,9.9C163.8,161.3,163.9,160.7,164.3,160z"/>
<path id="Vector_11" class="st3" d="M242.7,60.7l17.2,9.9c0.7,0.1,1.4,0.3,2.1,0.3L244.7,61C244,60.8,243.3,60.8,242.7,60.7z"/>
<path id="Vector_12" class="st3" d="M156.3,189.1c0.2-0.8,0.3-1.5,0.4-2.2l-17.2-9.9c-0.2,0.8-0.3,1.5-0.4,2.2L156.3,189.1z"/>
<path id="Vector_13" class="st3" d="M189,83.3l17.2,9.9c0.6-0.6,1.2-1.1,1.8-1.6l-17.2-9.9C190.2,82.2,189.6,82.7,189,83.3z"/>
<path id="Vector_14" class="st3" d="M156.4,238.7c-0.2-0.7-0.3-1.3-0.4-2l-0.2-0.3l-17.1-9.9c0.2,0.8,0.3,1.6,0.5,2.2L156.4,238.7z"
	/>
<path id="Vector_15" class="st3" d="M227.6,61.1c-0.7,0.2-1.5,0.3-2.2,0.5l17.2,9.9c0.8-0.2,1.5-0.3,2.2-0.5L227.6,61.1z"/>
<path id="Vector_16" class="st3" d="M226.5,78l-17.2-9.9c-0.3,0.2-0.7,0.3-1,0.6l-1,0.6l17.2,9.9l1-0.6L226.5,78z"/>
<path id="Vector_17" class="st3" d="M157.5,126l17.2,9.9l1-1.9l-17.2-9.9C158.2,124.7,157.9,125.4,157.5,126z"/>
<path id="Vector_18" class="st3" d="M163.8,257.6c-0.3-0.7-0.8-1.3-1.1-2l-17.2-9.9c0.3,0.7,0.8,1.4,1.1,2L163.8,257.6z"/>
<path id="Vector_19" class="st3" d="M136.7,205.3l17.2,9.9v-0.2c0-0.8,0-1.5,0-2.2l-17.2-9.9c0,0.8,0,1.5,0,2.2V205.3z"/>
<path id="Vector_20" class="st3" d="M225.4,78.6c-39.5,22.8-71.5,83.9-71.5,136.5s32,76.7,71.5,54c39.5-22.8,71.6-83.8,71.6-136.5
	S264.9,55.8,225.4,78.6z M279.5,138.3c-1.8,42.2-27.5,92.4-57.4,112c-29.9,19.6-52.6,1.3-50.8-40.9c1.8-42.2,27.5-92.4,57.4-112
	S281.3,96.1,279.5,138.3z"/>
<g id="Group_1" class="st6">
	<path id="Vector_21" d="M210.8,113.3c0.6-0.6,1.1-1.3,1.7-1.9L208,91.5c-0.6,0.5-1.2,1.1-1.8,1.6L210.8,113.3z"/>
	<path id="Vector_22" d="M224.3,79.3v21.3c0.7-0.5,1.4-1,2.1-1.6V78l-1,0.6L224.3,79.3z"/>
	<path id="Vector_23" d="M238.9,92c0.8-0.3,1.6-0.6,2.3-0.8l3.6-20.3c-0.8,0.2-1.5,0.3-2.2,0.5L238.9,92z"/>
	<path id="Vector_24" d="M180.6,165.3l0.8-2l-17.1-3.3c-0.3,0.7-0.5,1.4-0.7,2L180.6,165.3z"/>
	<path id="Vector_25" d="M188.7,146.5l1-1.9L175.8,134l-1,1.9L188.7,146.5z"/>
	<path id="Vector_26" d="M294,107.3l-15.1,14.2c0.1,0.9,0.3,1.7,0.3,2.6l15.5-14.4C294.4,109,294.2,108.1,294,107.3z"/>
	<path id="Vector_27" d="M171.9,202.6L154,212.9c0,0.8,0,1.5,0,2.2v0.2l17.7-10.2C171.6,204.2,171.8,203.3,171.9,202.6z"/>
	<path id="Vector_28" d="M174.7,185c0.2-0.8,0.3-1.6,0.5-2.2l-18.6,4.1c-0.2,0.8-0.3,1.5-0.4,2.2L174.7,185z"/>
	<path id="Vector_29" d="M253.1,89.6c0.8,0.1,1.5,0.2,2.2,0.3l6.7-19c-0.7-0.2-1.4-0.3-2.1-0.4L253.1,89.6z"/>
	<path id="Vector_30" d="M274.2,105.4c0.3,0.7,0.7,1.5,1,2.2L287.6,91c-0.3-0.7-0.8-1.3-1.2-2L274.2,105.4z"/>
	<path id="Vector_31" d="M265.4,94.3c0.6,0.4,1.1,0.9,1.6,1.4l9.4-17.9c-0.6-0.4-1.1-0.9-1.7-1.3L265.4,94.3z"/>
	<path id="Vector_32" d="M198.8,128.9l1.3-2l-9.4-16.3l-1.4,1.8L198.8,128.9z"/>
	<path id="Vector_33" d="M240.4,234c-0.6,0.7-1.2,1.3-1.7,1.9l4.5,19.9c0.6-0.5,1.2-1.1,1.8-1.7L240.4,234z"/>
	<path id="Vector_34" d="M262.9,199.8c-0.3,0.7-0.6,1.3-1,1.9l14,10.5l1-1.9L262.9,199.8z"/>
	<path id="Vector_35" d="M252.6,217.9l-1.3,2l9.5,16.4c0.4-0.6,1-1.2,1.4-1.8L252.6,217.9z"/>
	<path id="Vector_36" d="M270.9,180.5c-0.3,0.7-0.4,1.4-0.7,2l17.1,3.3c0.3-0.7,0.4-1.4,0.7-2L270.9,180.5z"/>
	<path id="Vector_37" d="M276.5,160.5c-0.2,0.8-0.3,1.6-0.5,2.2l18.5-4.1c0.2-0.8,0.3-1.5,0.3-2.2L276.5,160.5z"/>
	<path id="Vector_38" d="M296.9,130.4l-17.5,10c0,0.9-0.1,1.7-0.2,2.5l17.7-10.2v-0.2C296.9,131.9,296.9,131.2,296.9,130.4z"/>
	<path id="Vector_39" d="M226.5,268.4v-21.3c-0.7,0.5-1.4,1-2.1,1.6v20.9l1-0.6C225.7,268.9,226.2,268.7,226.5,268.4z"/>
	<path id="Vector_40" d="M176.1,241c-0.3-0.8-0.6-1.5-1-2.2l-12.5,16.9c0.3,0.7,0.8,1.4,1.1,2L176.1,241z"/>
	<path id="Vector_41" d="M184.7,252.9c-0.5-0.4-1.1-1-1.6-1.5l-9.4,18c0.5,0.4,1.1,0.9,1.7,1.3L184.7,252.9z"/>
	<path id="Vector_42" d="M211.5,255.8c-0.8,0.3-1.6,0.5-2.3,0.8l-3.6,20.2c0.8-0.2,1.5-0.3,2.2-0.5L211.5,255.8z"/>
	<path id="Vector_43" d="M197,258c-0.7-0.1-1.4-0.2-2.2-0.3l-6.6,18.9c0.7,0.2,1.4,0.3,2.1,0.4L197,258z"/>
	<path id="Vector_44" d="M171.8,224.3c-0.1-0.9-0.2-1.7-0.3-2.7l-15.6,14.6c0.2,0.8,0.3,1.6,0.5,2.4L171.8,224.3z"/>
</g>
<path id="Vector_45" class="st7" d="M244.7,355.5L163,308.4v-44.6l17.2,9.9l21.5,12.4v14.9l21.5,12.4v14.9l21.5,12.4V355.5
	L244.7,355.5z"/>
<path id="Vector_46" class="st8" d="M180.3,273.7l90.2-52L292,234l-90.2,52L180.3,273.7z"/>
<path id="Vector_47" class="st9" d="M201.7,286.1V301l90.3-52.1V234L201.7,286.1z"/>
<path id="Vector_48" class="st8" d="M201.7,301l90.3-52.1l21.5,12.4l-90.2,52L201.7,301z"/>
<path id="Vector_49" class="st9" d="M223.2,313.4v14.9l90.2-52v-14.9L223.2,313.4z"/>
<path id="Vector_50" class="st8" d="M223.2,328.2l90.2-52l21.5,12.4l-90.2,52L223.2,328.2z"/>
<path id="Vector_51" class="st9" d="M244.7,340.7v14.9l90.2-52v-14.9L244.7,340.7z"/>
<path id="Vector_52" class="st3" d="M270.6,133.3c-1.8,42.2-27.5,92.3-57.4,112c-11.1,7.3-21.2,9.3-29.5,6.9
	c-8.5-7.7-13.3-22.5-12.4-42.7c1.8-42.2,27.5-92.4,57.4-112c11.1-7.3,21.3-9.3,29.5-6.8C266.7,98.3,271.4,113,270.6,133.3z"/>
<path id="Vector_53" class="st10" d="M270.6,133.3c-1.8,42.2-27.5,92.3-57.4,112c-11.1,7.3-21.2,9.3-29.5,6.9
	c-8.5-7.7-13.3-22.5-12.4-42.7c1.8-42.2,27.5-92.4,57.4-112c11.1-7.3,21.3-9.3,29.5-6.8C266.7,98.3,271.4,113,270.6,133.3z"/>
<path id="Vector_54" class="st11" d="M213.1,223.7c-9.3,1-18,5.4-24.3,12.4c-3.5,3.7-6.2,8-8.3,12.5c1,1.3,2.1,2.5,3.3,3.6
	c1.8,0.5,3.6,0.9,5.4,1c0.5-1.2,0.9-2.5,1.3-3.7c2.1-5.7,5.8-10.6,10.7-14.2c4.8-3.5,10.7-5.6,16.8-5.9c4.1-0.1,8.2,0.6,12.4,1
	c1.6-1.8,3.2-3.6,4.8-5.6C227.8,224.3,220.3,222.9,213.1,223.7z M211.3,161.9c8.5,1.1,17.6,1.6,25.1-2.8
	c8.4-4.9,12.4-14.6,16.3-23.3c3.7-8.1,8.9-16.8,17.1-20c-1.7-11.4-5.8-20-11.6-25.3c-4-1.1-8.1-1.3-12.2-0.5
	c-4.1,4.7-7.1,10.2-8.7,16.2c-1.9,6.7-2.6,13.9-5.7,20.2c-3.2,6.3-8.6,11.2-15,13.9c-5.2,2.1-10.8,2.5-16.2,3.4
	c-3.8,0.6-7.6,1.4-11.3,2.5c-2.9,5.7-5.4,11.5-7.6,17.5c1.5-0.8,3-1.4,4.6-1.9C194,159.3,202.8,160.8,211.3,161.9z M219.9,119.7
	c2.7-4.7,3.6-10.1,5.1-15.3c0.5-1.9,1.2-3.8,1.8-5.7c-1.9,1.4-3.8,2.9-5.7,4.4c-2.8,6.7-5.4,13.2-10.4,18.2c-2.6,2.5-5.6,4.5-9,5.7
	c-0.6,0.2-1.3,0.3-2,0.4c-1.2,1.8-2.4,3.6-3.6,5.5c2.7-0.3,5.4-0.7,8-1.4C210.8,129.8,216.3,125.5,219.9,119.7z M270.6,127
	c-2.3,1.2-4.5,2.9-6.3,4.8c-4.5,4.9-6.9,11.3-9.7,17.4c-3.8,8.6-8.8,17.5-17.2,21.9c-5.5,2.9-12.1,3.7-18.3,3.9
	c-11.8,0.3-23.9-1.2-35.5,1.3c-2.5,0.5-4.9,1.3-7.3,2.3c-0.8,2.9-1.5,5.8-2.1,8.6c2.7-1.5,5.5-2.5,8.6-3.3
	c17.2-4.3,36.2,5.2,52.6-1.2c12.1-4.8,19.4-16.7,25.3-28.2c2.4-4.7,5-9.7,9.2-12.8c0.3-2.9,0.5-5.7,0.7-8.6
	C270.7,131.1,270.7,129,270.6,127z M227.8,197.3c-9.2,0.3-18.6-0.5-27.8-0.7c-4.8-0.3-9.5,0.3-14.2,1.5c-4.1,1.4-7.9,3.4-11.2,5.9
	c-1,0.8-2.1,1.6-3,2.3c-0.1,1-0.2,2.2-0.2,3.2c-0.5,12.3,1,22.5,4.2,30.3c2.1-1.8,3.9-3.8,5.4-6c6.4-8.6,12.5-18.1,22.2-22.7
	c10.4-4.9,22.6-3.2,34-5.4c4.9-1,9.7-2.8,14.1-5.3c1.8-3.4,3.5-6.7,5-10.2c-0.5,0.3-1,0.6-1.5,0.9
	C246.5,195.3,237.1,197,227.8,197.3z"/>
<path id="Vector_55" class="st3" d="M326,114.9c0,4.1-0.8,7.8-5.8,8.6c5.1,0.3,5.5,3.6,5.8,8.4c0.2-4.8,0.6-8.1,5.3-8.4
	C326.5,122.7,326,119,326,114.9z"/>
<path id="Vector_56" class="st3" d="M209,333c0,4.1-0.8,7.8-5.8,8.6c5.1,0.3,5.5,3.6,5.8,8.4c0.2-4.8,0.6-8.1,5.3-8.4
	C209.4,340.7,209,337,209,333z"/>
<path id="Vector_57" class="st3" d="M171.3,206.7c0,1.8-0.3,3.4-2.5,3.8c2.2,0.1,2.4,1.6,2.5,3.6c0.1-2.1,0.3-3.6,2.3-3.6
	C171.4,210.2,171.3,208.5,171.3,206.7z"/>
<path id="Vector_58" class="st12" d="M161.3,213.8c0,4.1-0.8,7.7-5.8,8.6c5.1,0.3,5.5,3.6,5.8,8.4c0.2-4.8,0.6-8.1,5.3-8.4
	C161.9,221.7,161.3,217.9,161.3,213.8z"/>
<path id="Vector_59" class="st12" d="M156.7,193.2c0,2.1-0.4,4-2.9,4.4c2.6,0.1,2.9,1.9,2.9,4.3c0.1-2.4,0.3-4.1,2.7-4.3
	C156.9,197.3,156.7,195.4,156.7,193.2z"/>
<path id="Vector_60" class="st12" d="M312.1,102.6c0,2.4-0.1,4.7-3.5,5.3c3.6,0,3.4,2.2,3.5,5.2c0.1-2.9,0.3-4.9,3.2-5.1
	C312.4,107.3,312.5,106,312.1,102.6z"/>
<path id="Vector_61" class="st12" d="M281.4,204c-0.3,4.5-0.6,6.5-4.7,7c4.1,0.3,4.5,3,4.8,6.8c0.2-3.8,0.4-6.7,4.2-6.8
	C281.8,210.3,281.7,208.5,281.4,204z"/>
<path id="Vector_62" class="st12" d="M192.4,333c-0.2,2.7-0.3,3.8-2.8,4.1c2.4,0.2,2.6,1.7,2.8,4c0.1-2.2,0.3-3.9,2.5-4
	C192.6,336.7,192.5,335.6,192.4,333z"/>
<path id="Vector_63" class="st12" d="M333.7,110.7c0,1.5,0,2.9-2.2,3.2c2.2,0,2.1,1.4,2.2,3.1c0.1-1.7,0.2-3,1.9-3.1
	C333.8,113.6,333.8,112.8,333.7,110.7z"/>
<path id="Vector_64" class="st12" d="M338.2,227.2c0,1.5,0,2.9-2.2,3.2c2.2,0,2.1,1.4,2.2,3.1c0.1-1.7,0.3-3,1.9-3.1
	C338.4,230.1,338.4,229.3,338.2,227.2z"/>
<path id="Vector_65" class="st12" d="M203.5,327.3c0,1.5,0,2.9-2.2,3.2c2.2,0,2.1,1.4,2.2,3.1c0.1-1.7,0.3-3,1.9-3.1
	C203.7,330.2,203.8,329.3,203.5,327.3z"/>
<path id="Vector_66" class="st13" d="M506.8,295.6l38-21.9l57.4,33.1l27.5-15.9l-57.3-33.1l18.7-10.7l-30.2-17.5l-18.7,10.7
	L509,221.2l-27.6,15.9l33.2,19.2l-70.8,40.8l22.1,12.8l178.8,47.9l3.5-2c1.7-6.8,3.1-13.8,4.2-20.9L506.8,295.6z"/>
<path id="Vector_67" class="st3" d="M510.5,127.5l-1.4,0.8V82l-17.2-9.9l-21.3,12.3l17.5-65.9l-17.3-9.9l-29.6,17l-47.8,178.6v25.6
	l17.2,9.9l53.7-30.9v18.4l17.2,9.9l27.4-15.9V183l18.6-10.7v-34.8L510.5,127.5z M464.3,154.1l-14.5,8.5l14.5-54.7V154.1z"/>
<path id="Vector_68" class="st14" d="M510.5,127.5l-1.4,0.8V82l-17.2-9.9l-21.3,12.3l17.5-65.9l-17.3-9.9l-29.6,17l-47.8,178.6v25.6
	l17.2,9.9l53.7-30.9v18.4l17.2,9.9l27.4-15.9V183l18.6-10.7v-34.8L510.5,127.5z M464.3,154.1l-14.5,8.5l14.5-54.7V154.1z"/>
<path id="Vector_69" class="st3" d="M509,148.1V82l-27.5,15.9V164l-38,21.9l44.6-167.5l-29.6,17l-47.8,178.6v25.6l70.8-40.8v38.3
	l27.5-15.9V183l18.7-10.7v-34.8L509,148.1z"/>
<path id="Vector_70" class="st4" d="M509,148.1V82l-27.5,15.9V164l-38,21.9l44.6-167.5l-29.6,17l-47.8,178.6v25.6l70.8-40.8v38.3
	l27.5-15.9V183l18.7-10.7v-34.8L509,148.1z"/>
<path id="Vector_71" class="st3" d="M488.1,18.4l-17.2-9.9l-29.6,17l17.2,9.9L488.1,18.4z"/>
<path id="Vector_72" class="st15" d="M488.1,18.4l-17.2-9.9l-29.6,17l17.2,9.9L488.1,18.4z"/>
<path id="Vector_73" class="st3" d="M491.8,72.1L509,82l-27.5,15.9l-12.6-7.3l1.6-6.2L491.8,72.1z"/>
<path id="Vector_74" class="st15" d="M491.8,72.1L509,82l-27.5,15.9l-12.6-7.3l1.6-6.2L491.8,72.1z"/>
<path id="Vector_75" class="st3" d="M481.5,164l-17.2-9.9l-14.5,8.4l-6.2,23.4L481.5,164z"/>
<path id="Vector_76" class="st15" d="M481.5,164l-17.2-9.9l-14.5,8.4l-6.2,23.4L481.5,164z"/>
<path id="Vector_77" class="st3" d="M527.7,137.4l-17.2-9.9l-1.5,0.8V148L527.7,137.4z"/>
<path id="Vector_78" class="st15" d="M509,148.1l18.7-10.7l-17.2-9.9l-1.5,0.8V148.1L509,148.1z"/>
<path id="Vector_79" class="st3" d="M410.6,214.1l-17.2-9.9l47.8-178.6l17.2,9.9L410.6,214.1z"/>
<path id="Vector_80" class="st2" d="M410.6,214.1l-17.2-9.9l47.8-178.6l17.2,9.9L410.6,214.1z"/>
<path id="Vector_81" class="st13" d="M197.5,449.2l-30.2-17.4l-18.6,10.7l-33.2-19.1L88,439.3l33.2,19.1l-70.8,40.9l22.1,12.8
	L251.3,560l29.6-17l-167.5-45.2l38-21.9l57.3,33.1l27.6-15.9l-57.4-33L197.5,449.2z"/>
<path id="Vector_82" class="st3" d="M116.9,329.7l-1.4,0.9v-46.3l-17.2-9.9l-21.3,12.4l17.5-65.9l-17.2-9.9l-29.6,17L0,406.4V432
	l17.2,9.9L70.8,411v18.4l17.2,9.9l27.6-15.9v-38.3l18.6-10.7v-34.8L116.9,329.7z M70.8,356.3l-14.5,8.5l14.5-54.7V356.3L70.8,356.3z
	"/>
<path id="Vector_83" class="st14" d="M116.9,329.7l-1.4,0.9v-46.3l-17.2-9.9l-21.3,12.4l17.5-65.9l-17.2-9.9l-29.6,17L0,406.4V432
	l17.2,9.9L70.8,411v18.4l17.2,9.9l27.6-15.9v-38.3l18.6-10.7v-34.8L116.9,329.7z M70.8,356.3l-14.5,8.5l14.5-54.7V356.3L70.8,356.3z
	"/>
<path id="Vector_84" class="st3" d="M115.5,350.3v-66.1L88,300.1v66.1l-38,21.9l44.6-167.5l-29.6,17L17.2,416.3v25.6L88,401v38.3
	l27.6-15.9v-38.3l18.6-10.7v-34.7L115.5,350.3z"/>
<path id="Vector_85" class="st4" d="M115.5,350.3v-66.1L88,300.1v66.1l-38,21.9l44.6-167.5l-29.6,17L17.2,416.3v25.6L88,401v38.3
	l27.6-15.9v-38.3l18.6-10.7v-34.7L115.5,350.3z"/>
<path id="Vector_86" class="st3" d="M94.6,220.6l-17.2-9.9l-29.6,17l17.2,9.9L94.6,220.6z"/>
<path id="Vector_87" class="st15" d="M94.6,220.6l-17.2-9.9l-29.6,17l17.2,9.9L94.6,220.6z"/>
<path id="Vector_88" class="st3" d="M98.3,274.3l17.2,9.9L88,300.1l-12.6-7.3l1.6-6.2L98.3,274.3z"/>
<path id="Vector_89" class="st15" d="M98.3,274.3l17.2,9.9L88,300.1l-12.6-7.3l1.6-6.2L98.3,274.3z"/>
<path id="Vector_90" class="st3" d="M88,366.2l-17.2-9.9l-14.5,8.4L50,388.1L88,366.2z"/>
<path id="Vector_91" class="st15" d="M88,366.2l-17.2-9.9l-14.5,8.4L50,388.1L88,366.2z"/>
<path id="Vector_92" class="st3" d="M134.1,339.6l-17.2-9.9l-1.4,0.9v19.9L134.1,339.6z"/>
<path id="Vector_93" class="st15" d="M115.5,350.3l18.6-10.7l-17.2-9.9l-1.4,0.9V350.3z"/>
<path id="Vector_94" class="st3" d="M17.2,416.3L0,406.4l47.8-178.6l17.2,9.9L17.2,416.3z"/>
<path id="Vector_95" class="st2" d="M17.2,416.3L0,406.4l47.8-178.6l17.2,9.9L17.2,416.3z"/>
<path id="Vector_96" class="st13" d="M407,422.4c-4.8-2.2-9.9-3.7-15.1-4.5c-3.2-0.5-6.5-0.5-9.7,0.1c-2.2,0.4-4.5,1.2-6.6,2.2
	c-7.1,3.5-8.1,7.4-8.4,10.7c-0.3,3.3,1.6,7.8,7.4,11.8l100.6,70.4c18.3-9.8,35.3-21.8,50.6-35.7C482.4,457.2,411.1,424.1,407,422.4z
	"/>
<path id="Vector_97" class="st16" d="M439.3,274.3c6.1,1.2,8.6,1.6,11.6,6.7c2.9,5.1,8,24.1,9.3,28c1.4,4,1.8,5.4,1.2,9.8
	c-0.6,4.6-3.3,12.7-4.4,17.2c-0.5,2.1-0.9,4.1-1.3,6.2c-0.5,2.2-1.2,4.2-2.1,6.3c-0.3,1-1,1.9-1.8,2.6c-0.5,0.4-1.2,0.5-1.7,0.9
	c-0.5,0.4-0.6,1.1-1.3,1.5c-0.7,0.3-1.6,0.2-2.2,0.5c-0.7,0.5-1.3,1-2.1,1.3c-0.7,0.2-1.2,0.5-1.7,1c-0.4,0.4-0.9,1.6-1.6,1.5
	c-0.8-0.1-1-1-1-1.6c0-1.4,0.5-2.8,1.4-3.9c0.8-1.2,1.6-2.4,2.5-3.6c0.9-1,1.6-2.3,1.8-3.7c0.3-0.9,0.2-2.1-1-1.6
	c-1.4,0.6-2.9,1.9-4.5,1.6c-1.1-0.2-1.2-1.1-0.5-1.8c1.1-1.2,2.1-2.5,3-3.9c1-1.4,1.6-2.9,2.6-4.2c0.5-0.7,1-1.4,1.6-2.1
	c1.6-1.8,1.6-4.2,1.8-6.6c0.3-3.2,0.5-11.4,0.5-11.4l-7.5-18.4L439.3,274.3z"/>
<path id="Vector_98" class="st17" d="M448.9,326.3c0.1-3.8,0.3-7.6,0.3-11.4c-2.4-5.9-5-12.3-7.3-18.4c2.6,6.1,5.1,12.2,7.6,18.4
	C449.4,318.8,449.2,322.6,448.9,326.3z"/>
<path id="Vector_99" class="st7" d="M397.5,417.1c2.2-0.8,3.7-0.8,3.7,0.3c-0.3,1.3-0.8,2.5-1.4,3.7l-1.7,2.3l-0.8,2.2
	c0,0-1,1.2-1,1.3s-0.3-4.2-0.3-4.2S394.7,417.7,397.5,417.1z"/>
<path id="Vector_100" class="st7" d="M420.3,327.7c0,0-4.8,5.7-7.7,16.4c-2.7,9.9-4.7,20-6,30.3c-0.7,4.6-1.8,10.3-3.5,19.3
	c-1.3,6.9-5.3,28-5.3,28s2.3,3.8,5.1,4.9c4,1.6,7.8,0.9,8.3-2.7c0,0,2.6-4.2,6.7-15c1.9-4.9,3.5-10.1,4.6-15.3
	c0.4-3.3,0.5-6.6,0.3-9.9l16-27.8c1.7-3,3.9-5.9,6.3-8.5c1.5-1.6,2.7-3.4,3.5-5.4c2.7-7.3-1.2-16.9-1.2-16.9L420.3,327.7z"/>
<path id="Vector_101" class="st17" d="M406.7,374.5c-2.6,15.8-5.5,31.6-8.6,47.4C400.8,406,403.7,390.2,406.7,374.5z"/>
<path id="Vector_102" d="M400.5,434l-0.9-0.2c0.1-0.3,6.5-33.4,11-47.2c4.5-13.8,16.2-41.4,16.3-41.7l0.8,0.3
	c-0.1,0.3-11.8,27.7-16.3,41.6C406.9,400.7,400.5,433.6,400.5,434z"/>
<path id="Vector_103" d="M441.4,336.9h-26.3c-1,2.3-1.7,4.8-2.4,7.2c-2.4,9.2-4.3,18.5-5.6,27.9c0.6,4.3,1.4,8.7,2,11.8
	c1.8,8,2.9,13.7,4.3,17c1.4,2.8,2.9,5.4,4.8,8c1.9-4.8,3.4-9.9,4.5-14.9c0.4-3.3,0.5-6.6,0.3-9.9l15.6-27.1l1.1-4.3
	C443.7,346,443.2,341.2,441.4,336.9z"/>
<path id="Vector_104" class="st9" d="M376,427.9c-0.4-0.3-1,1.6-1.1,2.2c-0.1,0.7,1.2,3.4,4.5,5.4c3.3,2,9,3.1,11.1,3.8
	c2.2,0.7,3.8,2.4,6.7,3.8c2.5,1.2,6.2,1.8,7.9,1.1c0.3-0.2,0.6-0.4,0.8-0.8c0.2-0.3,0.3-0.7,0.4-1c0.4-1.4,0.4-1.6,0.3-1.7
	L376,427.9z"/>
<path id="Vector_105" class="st8" d="M407.5,437.6c-0.2,1.4-0.7,2.8-1.4,4c-0.5,0.3-1,0.6-1.6,0.8c-0.6,0.2-1.2,0.2-1.8,0.1
	c-2.6-0.2-5-1-7.1-2.5c-1.6-1-3.4-1.9-5.2-2.5c-2.5-0.6-5-1.4-7.4-2.3c-1.8-0.8-3.5-1.8-4.9-3c-1.2-1.1-2.3-2.4-2.2-4
	c0.3-1,0.9-1.9,1.6-2.6c0.8-0.7,1.8-1,2.9-1.1c2-0.1,4,0.2,5.8,0.9c1.8,0.6,3.7,1,5.6,1.2c1.3,0.1,2.9,1.2,3.9,0.1
	c1.2-1.3,1.6-4.5,2.5-6c0.2-0.3,0.3-0.5,0.6-0.6c0.3-0.1,0.8,0.3,1,0.6c1.2,1.5,2.7,2.7,4.4,3.5c4.7,2.3,6.8,1.1,6.8,1.1l0.4-1
	c0,0,1,0.5-0.3,2.7c-1,1.8-1.8,3.6-2.5,5.6C408.1,434.1,407.7,435.8,407.5,437.6z"/>
<path id="Vector_106" class="st17" d="M376,428.1c1.5-5.4,7.6-4,11.6-2.6c1.4,0.5,2.9,0.9,4.3,1c-1.5-0.1-2.9-0.3-4.4-0.8
	C383.5,424.5,377.6,422.9,376,428.1z"/>
<path id="Vector_107" class="st8" d="M387.1,425.5c-2,0.2-2.5,3.4-2.5,3.4c1.8,1,3.7,1.6,5.7,1.8c1.4,0.3,2.9-0.1,4.1-0.8
	c1.2-0.8,2.1-1.9,2.4-3.3c0.9-2.7,0.1-6.5-0.1-7.7c-0.1-0.4,0-0.9,0.2-1.2c0.3-0.3,0.6-0.6,1-0.7c-0.3,0-0.7,0.2-1,0.3
	c-0.3,0.2-0.6,0.4-0.8,0.7c-0.2,0.3-0.3,0.6-0.4,1s-0.1,0.7,0,1c0.1,1.5,0,4.3-0.6,5.3C394.4,426.1,391.3,426.6,387.1,425.5z"/>
<path id="Vector_108" class="st7" d="M436.9,327.7c2.9,3.5,4.6,7.7,4.8,12.2c0.2,4.3-1.1,8.6-3.9,12c-1,14.7-3.9,42.9-3.9,42.9
	c3.9,4,4.8,6.6,7.1,13.7c1.4,4.3,6.5,18.3,7.8,22.1c-6.7,0.9-10.5,7.6-10.5,7.6s-11.9-17.6-17.7-28c-4.2-7.7-6.2-10.5-7.5-14.9
	c-1.6-5.6-2-8.6-3.4-18.1c-1.4-9.5-2.8-21.6-3.5-30.9c-0.7-9.3-1.2-19.3-1.2-19.3L436.9,327.7z"/>
<path id="Vector_109" class="st17" d="M438.5,438.1c-7-10.3-13.8-20.6-19.8-31.5c-2-3.2-3.6-6.5-5-9.9c-1.1-3.5-2-7.2-2.6-10.8
	c-3.1-19.6-5-39.3-5.9-59.1l1,14.8c1,14.9,2.8,29.6,5.1,44.2c0.9,4.8,1.7,9.8,4,14.3C422.4,413.2,430.1,425.9,438.5,438.1z"/>
<path id="Vector_110" d="M421.6,399.3c-3.5-8.9-7.7-57.6-7.5-74.4h-0.9c-0.1,5.6,0.3,14.8,1,24.9c-2.9-1.5-4.7-4.1-4.7-17.5h-0.9
	c0,13.4,1.7,16.7,5.6,18.4c1.5,20,4.1,42.9,6.4,48.9c3.5,8.7,21.3,38.3,21.5,38.5l0.8-0.4C442.9,437.5,425,408.1,421.6,399.3z"/>
<path id="Vector_111" class="st8" d="M437.4,436.7c-1,1.6-2.3,2.6,0.8,4.6c2.4,1.6,2.5,2.8,3.2,4.5c0.5,1.6,0.7,3.3,0.6,5
	c0,0,4.1-6.1,2.9-10C443.7,436.8,437.4,436.7,437.4,436.7z"/>
<path id="Vector_112" class="st8" d="M450.5,433.1c1.1,1.2,2.5,2.2,4,2.9c1,0.6,2.1,1.2,2.4,2.4c0,0.2-0.6,0.9-0.6,1
	c0.1,0.6,0,1.1-0.1,1.7c-0.3,2-1.3,3.5-1.6,5.4c-0.1,0.8-0.3,1.6-0.4,2.3c-0.2,1-0.3,1.9-0.3,2.9c-0.1,1-0.2,2-0.2,2.9
	c-0.1,0.4-0.1,0.9,0,1.3c0.1,0.4-6.7,3.8-9.3,5.1c-0.2,0.1-0.3,0.2-0.5,0.2c-1.6,0.4-3.5,0.3-4.9-0.5c-5.4-2-5.1-3.9-5.1-3.9
	c0-0.8,0.3-1.6,0.8-2.2c0.4-0.7,1.1-1.2,1.8-1.6c0.3-0.2,0.7-0.3,1-0.4c1.4-0.5,2.9-0.6,4.2-0.2c0.3-0.8,0.4-1.6,0.3-2.5
	c0.1-1.3,0.2-2.5,0.1-3.8c-0.3-1.5-0.8-2.8-1.6-4c-1.1-1.6-2.4-3.6-3.2-4.8s-1-3.8,3.5-7c4.3-3.1,7.5-2.4,8.1-1.1
	C449.4,430.7,449.8,431.9,450.5,433.1z"/>
<path id="Vector_113" class="st17" d="M433.9,457c0-3.7,4.8-5.6,7.9-4.5C438.6,451.9,434.3,453.3,433.9,457z"/>
<path id="Vector_114" class="st18" d="M438.8,454.5c0.3-1,1-1.6,1.9-2.2c0.3,0,0.6,0.1,1,0.2C441.2,453,439.3,453.8,438.8,454.5z"/>
<path id="Vector_115" d="M457.5,439.7c1.2,0.5,0.2,2.4-1.2,5.4c-1.3,2.2-1.8,4.8-1.5,7.3c0.3,2.6-0.3,3.9-1.5,4.8
	c-1.1,1-9.6,4.6-9.6,4.6c2-2.5,3.2-5.6,3.3-8.8c0.4-5.8,1-9.4,3.9-12c0.9-0.7,2-1.2,3.1-1.4C455.2,439.3,456.4,439.3,457.5,439.7z"
	/>
<path id="Vector_116" class="st9" d="M433.9,457c0.2,1.1,3.4,3.5,7.2,3.4c3.8-0.1,4.1-0.9,4.8-5.3c0.6-4.4,1-10.6,2.9-13.2
	c1.9-2.6,4.5-4.2,8.1-3.3c0.4,0.2,1.6,1.4,1.1,2.4c0,0,0-0.9-1.6-1.3c-1.3-0.3-2.9-0.3-5,1.6c-2.5,2.2-3.1,7.3-3.4,11.8
	c-0.3,4.4-1.6,8.6-5.4,9.1c-1.6,0.2-3.2,0.1-4.7-0.4c-1.6-0.4-2.9-1.3-4.1-2.3C433.6,458.5,433.6,457.8,433.9,457z"/>
<path id="Vector_117" class="st7" d="M412.1,246.6c-0.5-0.7-0.8-1.5-0.9-2.3c-0.1-0.9,0.1-1.7,0.4-2.5c0.6-1.6,1.9-3.2,5.6-5.2
	c4.4-2.2,16.6-3.9,22.6,4.1c0.9,1.2-11.1,23.7-10.5,28.3c-3.1-3.3-13.4-14.8-13.4-14.8c-2.4-1-3.9-1.9-4.4-4.2
	C411.3,248.9,411.5,247.7,412.1,246.6z"/>
<path id="Vector_118" class="st17" d="M415.9,254.2c-3.6-1-6-4.1-3.9-7.6C410.6,250.2,412.6,252.8,415.9,254.2z"/>
<path id="Vector_119" class="st17" d="M412.1,246.6c-1.6-1.6-1.1-4.3,0-6.1c1.3-1.7,3.1-3,5.1-3.9c-1,0.5-1.8,1.1-2.7,1.7
	C412,240.1,410.1,243.8,412.1,246.6z"/>
<path id="Vector_120" class="st19" d="M413.9,253c0,0-3.3,5.4-2.9,5.8c0.8,0.6,1.6,1.1,2.4,1.6L413.9,253z"/>
<path id="Vector_121" class="st17" d="M413.9,253c-0.8,1.7-1.8,3.4-2.6,5.1c-0.1,0.3-0.3,0.6-0.2,0.8c0.2,0.3,0.4,0.4,0.7,0.6
	c-0.3-0.2-0.9-0.3-1-0.8C411.6,256.7,412.5,254.7,413.9,253z"/>
<path id="Vector_122" class="st16" d="M418,243.2c-2.2,1-4.1,2.8-4.8,7.6c-0.2,1.3,0.8,3,0.3,4.7c-1.9,7.3,0.3,13.2,1.7,14.5
	c1,0.9,5.9,1.3,8.5,0.6c3.3-0.9,10.3-4.1,13.7-9.2c4-6,4.8-14,0.4-17.2C431.7,239.6,420.3,242.1,418,243.2z"/>
<path id="Vector_123" class="st17" d="M413.2,250.8c0,1.6,1,3.3,0.4,4.9c-1,4.7-1.1,10.2,1.7,14.3c-3.1-3.9-3.1-9.7-1.9-14.3
	C413.9,254.1,413.1,252.4,413.2,250.8z"/>
<path id="Vector_124" class="st16" d="M434.8,264.8l1.3,8.9c2,0.4,2.2,2.8,1.2,4.6l0.4,2.5l-13.6,2.4l-1.6-12.4L434.8,264.8z"/>
<path id="Vector_125" class="st19" d="M415.6,270.1c1.2,0.6,3.7,1.1,7.1,0.6l-0.2-1.7c-1.1,0.4-2.2,0.7-3.4,1
	C418,270.1,416.8,270.2,415.6,270.1z"/>
<path id="Vector_126" class="st7" d="M414.7,245.8c-0.1,1,0.2,2.1,0.8,2.9c0.6,0.9,1.5,1.5,2.5,1.8c-0.5,1.1-0.8,2.4-0.6,3.7
	c0.1,0.8,0.3,1.5,0.8,2.1c0.4,0.6,1,1,1.7,1.4c1,0.3,1.2-0.1,1.6-0.9c0.5-1,1.1-2.7,3.4-2.4c2.7,0.3,3.4,4.3,1.8,6.9
	c-0.3,0.5-0.7,1-1.2,1.4c-0.5,0.3-1.1,0.6-1.7,0.6c-0.3,0-0.7-0.1-1-0.3c-0.3-0.2-0.6-0.3-0.8-0.6c0,0,0.2,3.5,4.7,5.5
	c2.8,1.5,6,1.9,9.2,1.2c2.1-2.3,4.1-4.8,5.9-7.3c4.8-7,5.9-19.9-2.4-22.2c-0.4-0.1-8-1.2-11.6-0.3
	C416.3,241.8,414.8,245.3,414.7,245.8z"/>
<path id="Vector_127" class="st3" d="M435.1,238.8c-1,0.7-1.7,1.8-1.9,3c-0.1,0.6-0.1,1.2,0.2,1.8c0.2,0.6,0.6,1,1,1.5
	c2.4,1.9,6.1-0.3,6.7-3.1C441.6,238.7,437.5,237,435.1,238.8z"/>
<path id="Vector_128" class="st7" d="M437.1,239.9c-2.5,1.6-4,5.1-2.7,7.7c0.3,0.7,0.9,1.3,1.2,2.1c1,2.3-0.4,4.9-0.8,7.4
	c-0.2,2,0.2,4,1,5.8c0.8,1.3,2.6,1.6,3.4,3.1c0.5,1,0.2,2.2,0.3,3.2c0.4,2.3,3.1,3.4,5.5,3.5c1,0.1,2-0.1,2.9-0.3
	c1-0.3,1.8-0.9,2.5-1.6c0.5-0.9,1.1-1.6,1.7-2.4c1.4-1.3,3.6-1.2,5.2-2.4c0.6-0.5,1-1.1,1.3-1.8c0.3-0.7,0.4-1.5,0.3-2.2
	c-0.2-1.6-0.5-3-1.2-4.4c-1-2.4-0.2-4,0.3-6.4c0.3-1.3,0-2.7-0.6-3.9c-0.6-1.2-1.6-2.1-2.9-2.6c-1.7-0.7-3.8-0.6-5.2-1.8
	c-0.7-0.8-1.3-1.6-1.8-2.4C445.1,237.5,440,238.1,437.1,239.9z"/>
<path id="Vector_129" class="st3" d="M446.8,280.9c-0.5-1.5-1.4-2.9-2.5-3.9c-1.1-1.1-2.4-2-4-2.5c-1.2-0.3-4.2-0.9-4.2-0.9
	c0.7,1.6-0.4,2.6-2.5,3.1c-2.6,0.6-6.6,0.7-9.3-1.1l-1.1-0.7c-2.9,0.7-5.9,1.6-8.7,2.6c-0.6,0.3-3.9,1.4-9,12.9
	c-2.2,4.9-1.6,9.9,2.5,13.5c0.3,3.1-1.8,10.1-1.8,10.1c-1,5.9-1.3,11.8-0.7,17.8c0,0,2.4,6.4,21.5,6.3c14.8,0,22.2-7.3,22.2-7.3
	c-0.2-3.6-5.9-16.3-5.3-20.6C444.8,304.1,450.5,293,446.8,280.9z"/>
<path id="Vector_130" class="st16" d="M414.5,277.5c3.9,3.2,4.2,7.5,3.6,13.4c-0.6,5.9-6.5,24.2-7.7,28.2c-1.2,4-2.9,5.4-6,8.6
	c-3,3.2-10.1,8.4-13.7,11.3c-1.6,1.4-3.1,2.8-4.7,4.2c-1.7,1.5-3.5,2.8-5.4,3.9c-0.9,0.6-1.9,1-2.9,1c-0.7,0-1.3-0.3-1.9-0.3
	c-0.6,0.1-1.2,0.5-1.9,0.4c-0.7-0.1-1.4-0.9-2.2-1c-0.8,0-1.6,0-2.4-0.1c-0.6-0.3-1.3-0.3-2-0.2c-0.6,0.1-1.6,0.8-2.2,0.3
	c-0.6-0.5-0.3-1.4,0.1-2c0.9-1.1,2.1-2,3.5-2.4c1.4-0.5,2.8-1,4.1-1.5c1.3-0.3,2.6-1,3.6-1.9c0.8-0.6,1.4-1.6,0.1-1.8
	c-1.5-0.3-3.4-0.1-4.6-1.3c-0.8-0.8-0.3-1.6,0.7-1.8c1.6-0.3,3.2-0.9,4.8-1.4c1.6-0.6,3-1.4,4.7-1.9c0.9-0.3,1.7-0.5,2.6-0.7
	c2.4-0.5,3.8-2.5,5.3-4.3c2.1-2.4,5.7-7,8.1-10.3l3.7-17.9C404.1,288.6,404.9,280.4,414.5,277.5z"/>
<path id="Vector_131" class="st16" d="M418,290.9c-1,5.3-2.2,10.5-3.9,15.6c-0.1,0.4-0.3,0.9-0.3,1.2c-1.5,5-2.9,9.6-3.5,11.3
	c-1.1,3.6-2.6,5.1-5.2,7.8l-0.8,0.9c-3.2,3.4-10.1,8.4-13.7,11.3c-1.6,1.4-3.1,2.8-4.7,4.2c-1.7,1.5-3.5,2.8-5.4,4
	c-0.9,0.6-1.9,1-2.9,1c-0.7,0.1-1.3-0.3-1.9-0.3c-0.6,0.1-1.2,0.5-1.9,0.4c-0.7-0.1-1.4-0.9-2.2-0.9c-0.8,0-1.6,0-2.4-0.1
	c-0.6-0.3-1.3-0.3-2-0.2c-0.2,0-0.4,0.2-0.7,0.3l-0.3,0.1c-0.2,0.1-0.3,0.1-0.4,0.1c-0.2,0-0.3,0-0.4,0s-0.3-0.1-0.3-0.2
	c-0.7-0.6-0.3-1.3,0.1-2c0.9-1.1,2.1-2,3.5-2.4c1.4-0.6,2.8-1,4.1-1.5c1.3-0.3,2.6-1,3.6-1.9c0.8-0.6,1.4-1.6,0.1-1.8
	c-1.5-0.3-3.4-0.1-4.6-1.3c-0.8-0.9-0.3-1.6,0.6-1.8c1.6-0.3,3.2-0.9,4.8-1.4c1.6-0.6,3-1.4,4.7-1.9c0.9-0.3,1.7-0.5,2.6-0.7
	c2.4-0.5,3.8-2.5,5.3-4.3c2.1-2.4,5.7-7,8.1-10.3l3.7-17.9c2.3-9.8,3.2-17.9,12.7-20.8c1,0.8,1.8,1.7,2.4,2.9
	C418.4,283.2,418.5,286.7,418,290.9z"/>
<path id="Vector_132" class="st17" d="M365.1,347.4c-0.3-0.3-0.3-0.5-0.3-0.9c0-0.3,0.1-0.6,0.3-0.9c0.9-1.7,2.9-2.5,4.6-3.1
	c1.1-0.5,2.3-1,3.6-1.2c1.2-0.3,2.3-1,3.3-1.6c-1,0.9-2.1,1.5-3.2,1.9c-2.4,0.6-4.8,1.6-6.9,2.8C365.6,345,364.2,346.4,365.1,347.4z
	"/>
<path id="Vector_133" class="st17" d="M372,336.7c-1.5-1.7,1.4-1.9,2.5-2.2c2.9-0.8,5.4-2.3,8.2-3.1c1.5-0.3,2.9-0.8,4.1-1.6
	c2-1.6,4.1-4.7,5.7-6.7l5.4-6.9c1.2-6,3.1-15.4,4.6-21.5c1.6-7.3,3.9-14.9,11.9-17.1c-8,2.2-10.3,9.9-11.8,17.2
	c-1.5,6.2-3.2,15.3-4.6,21.7l-5.4,6.9c-1.6,2-3.7,5-5.8,6.7c-1.2,0.8-2.7,1.3-4.1,1.6c-2.9,0.8-5.4,2.3-8.3,3
	C373.4,334.8,370.6,335,372,336.7z"/>
<path id="Vector_134" class="st14" d="M441.7,355.9c0,0.4,0.1,1,0.3,1.3c0.3-0.3,0.4-0.7,0.7-1c0.5-0.4,1-0.8,1.7-1
	c0.7-0.4,1.4-0.9,2.1-1.3c0.7-0.3,1.6-0.2,2.2-0.5c0.8-0.3,0.8-1,1.3-1.5c0.5-0.4,1.2-0.4,1.7-0.9c0.8-0.7,1.5-1.6,1.8-2.6
	c0.9-2.1,1.6-4.1,2.1-6.3c0.3-2.1,0.8-4.1,1.3-6.2c1.1-4.5,3.8-12.6,4.4-17.2c0.6-4.4,0.2-5.8-1.2-9.8c-1.4-3.9-6.4-22.9-9.3-28
	c-2.8-4.8-5.1-5.4-10.6-6.6l-0.3-0.1l-0.5-0.1l-0.4-0.1l-0.5-0.1l-0.3-0.1l-0.8-0.2l-0.6-0.1h-0.3h-0.3l-0.6-4.4h0.2
	c1-1.2,2.1-2.3,3.2-3.7c0.2,0.2,0.3,0.3,0.3,0.5c0.5,1,0.2,2.2,0.3,3.2c0.4,2.3,3.1,3.4,5.5,3.5c1,0.1,2-0.1,2.9-0.4
	s1.8-0.9,2.5-1.6c0.5-0.9,1.1-1.6,1.7-2.4c1.4-1.3,3.6-1.2,5.2-2.4c0.6-0.5,1-1.1,1.3-1.8c0.3-0.7,0.4-1.5,0.3-2.2
	c-0.2-1.6-0.5-3-1.2-4.4c-1-2.4-0.2-4,0.3-6.4c0.3-1.3,0-2.7-0.6-3.9c-0.6-1.2-1.6-2.1-2.9-2.7c-1.7-0.7-3.8-0.5-5.2-1.8
	c-0.7-0.8-1.3-1.6-1.8-2.4c-1.9-2.1-5.3-2.2-8-1.6c-0.7-0.5-1.5-0.7-2.3-0.7c-3.8-2.9-8.6-3.6-12.9-3.3c-1.6,0.7-3,1.6-4.2,2.9
	c-3.8,3.7-6,9.2-5,14.4c0.2,1,0.5,1.9,0.7,2.9c0.4,2.5-0.2,5-0.2,7.6c0,2.5,0.8,5.4,3,6.6c1.6,1,3.7,0.8,5.6,1
	c3.1,0.4,2.8,2.3,2.9,4.9c0.1,0.4,0,0.8-0.1,1.2c-0.1,0.2-0.1,0.3-0.3,0.3c-0.8,1-3.1,1.4-4.1,1.7c-2,0.5-4,1.1-5.9,2
	c-0.9,0.4-1.6,1-2.2,1.9c-2.3,3.2-3.3,7.1-4.2,10.8c-0.9,3.5-1.8,7-2.9,10.5c-0.9,3.1-1.8,6.3-2.9,9.4c-0.8,2.9-1.9,5.5-3.4,8.1
	c-1.9,2.9-4.6,5.1-7,7.5c-5.4,5.5-10,12.6-17.4,15.2c-2.9,1-5.8,1.3-8.7,2.1c-1,0.3-2.2,0.8-2.4,1.7c0.2,0,0.3-0.1,0.4-0.1l0.3-0.1
	c0.3-0.1,0.4-0.2,0.7-0.3c0.7-0.1,1.4,0,2,0.2c0.8,0.1,1.6,0.1,2.4,0.1c0.8,0.1,1.3,0.8,2.2,0.9c0.9,0.2,1.2-0.3,1.9-0.4
	c0.7-0.1,1.2,0.3,1.9,0.3c1-0.1,2.1-0.4,2.9-1c1.9-1.2,3.7-2.5,5.4-4c1.6-1.5,3-2.9,4.7-4.2c3.5-2.9,10.5-8,13.7-11.3l0.8-0.9
	c2.5-2.7,4.1-4.1,5.2-7.8c0.5-1.7,2-6.3,3.5-11.3l0.3-1.2c0.5,0.7,0.9,1.6,0.8,2.4c0.4,5.9,1.8,11.8,2.8,17.6
	c0.7,4.1,1.4,8.3,1.6,12.5c0.3,3,0.3,6,0.3,9.1l0.3,21.7c0,1.2,0,2.4,0.1,3.7c0,3.4,0.3,6.8,0.7,10.2c0.4,3,1,6,1.9,8.8
	c0.3,0.7,0.4,1.4,0.7,2.1c2.5,6.9,6.4,13.2,10.2,19.5c3.8,6.7,7.3,13.6,10.3,20.7c0.6,1.2,1,2.5,1.4,3.9c0.3,2.3-0.3,4.8-0.4,7.1
	c-0.2,2.3,0.1,4.7,0,6.9c0.1,2.3-0.6,4.6-1.9,6.6c-1,1.2-2.2,2.1-3.7,2.5c1.1,0.2,2.3,0.3,3.5,0.1c0.7-0.1,1.3-0.3,1.9-0.7
	c3-1.3,5.9-2.7,8.7-4.2c1.1-0.9,1.7-2.2,1.5-4.8c-0.3-2.5,0.2-5,1.5-7.3c0.8-1.3,1.4-2.8,1.7-4.2c0.3-1-0.8-2.1-1.2-2.2
	c-0.3-1.2-1.4-1.8-2.4-2.4c-1.5-0.8-2.9-1.7-4-2.9c-0.7-1.2-1.1-2.5-1.5-3.8c-0.2-0.3-0.4-0.5-0.7-0.7c-1.8-5.4-5.9-16.4-7.1-20.2
	c-2.2-7.2-3.3-9.8-7.1-13.7c0,0,2.2-20.8,3.4-35.9l1.5-2.6c0.2-0.3,0.3-0.5,0.5-0.8c1.6-2.8,3.6-5.3,5.9-7.6
	c0.3-0.3,0.4-0.5,0.7-0.8c-0.3,0.5-0.6,1.1-1,1.6C443.4,350.9,441.6,353.2,441.7,355.9z M449.1,331.1l0.2-0.2
	c-0.1-0.8-0.3-1.6-0.4-2.3c-0.3-1-0.7-2.2-1.1-3.5c-0.2-0.4-0.3-0.9-0.4-1.2c-0.5-1.5-1-3-1.5-4.6c-0.2-0.4-0.3-1-0.4-1.4
	c-0.2-0.4-0.3-1-0.4-1.5c-0.2-0.5-0.2-0.7-0.3-1c0-0.1-0.1-0.3-0.1-0.3c0-0.1-0.1-0.4-0.2-0.7c-0.1-0.4-0.2-0.8-0.3-1.1l-0.1-0.4
	c0-0.1,0-0.2,0-0.3c0-0.2-0.1-0.3-0.1-0.5v-0.3c0-0.3,0-0.4,0-0.7c0-0.2,0-0.4,0-0.6c0.3-1.9,0.8-3.7,1.3-5.5
	c0.3-1.4,0.8-2.9,1.2-4.5c1.1,2.2,2.2,4.2,3.4,6.4c1,1.7,1.7,3.5,2.4,5.3c1.3,4.1,1,8.7,0.5,13c-0.5,4.9-1.6,9.9-3.3,14.5
	C449.9,336.9,449.7,333.9,449.1,331.1z"/>
</svg>
