<svg viewBox="0 0 262 268" xmlns="http://www.w3.org/2000/svg" xmlns:xlink="http://www.w3.org/1999/xlink" width="262.000244" height="268.000000" fill="none" customFrame="#000000">
	<defs>
		<clipPath id="clipPath_0">
			<rect width="53.000000" height="53.000000" x="98.000000" y="152.000000" fill="rgb(255,255,255)" />
		</clipPath>
	</defs>
	<g id="Group 106">
		<path id="Vector 49" d="M233.676 244.103C231.788 247.694 228.551 249.878 225.117 251.626C215.828 256.356 205.815 259.031 195.673 261.207C190.24 262.373 184.769 263.41 179.275 264.242C174.349 264.987 169.377 265.486 164.409 265.892C156.322 266.553 148.222 267.05 140.011 267.808C125.224 268 110.553 268 95.6363 268C94.7711 267.827 94.1601 267.547 93.5302 267.496C84.7651 266.782 75.9473 266.471 67.2425 265.316C55.6203 263.775 44.0139 261.926 32.5358 259.561C23.6492 257.73 14.942 254.931 7.25149 249.859C5.29362 248.567 3.46718 246.919 1.98491 245.107C-1.79157 240.491 0.28221 235.528 4.34425 232.707C8.44899 229.856 13.0956 227.775 17.673 225.573C17.6578 227.19 17.2041 228.618 17.344 229.987C17.7025 233.492 20.2266 235.609 22.9082 237.433C33.1859 244.422 44.9928 247.471 56.9565 249.686C67.9932 251.729 79.1583 253.192 90.3212 254.424C99.955 255.488 109.662 256.379 119.342 256.433C134.988 256.52 150.644 256.03 166.283 255.442C174.491 255.133 182.745 254.56 190.845 253.276C201.766 251.544 212.569 249.061 223.4 246.794C226.862 246.07 230.253 245.01 233.676 244.103Z" fill="rgb(0,86,184)" fill-rule="nonzero" />
		<path id="Vector 50" d="M121.184 0C125.104 2.47473 123.834 6.09041 123.244 9.20444C122.708 12.0319 121.164 14.6924 119.969 17.3871C118.186 21.4095 117.678 25.7134 119.81 29.4556C125.067 38.6837 124.885 47.6735 120.111 56.9164C119.267 58.5522 119.373 60.6288 118.666 62.358C117.984 64.0266 117.14 65.9461 115.746 66.9137C114.876 67.5171 112.472 67.0025 111.455 66.1793C110.415 65.3378 109.732 63.498 109.758 62.1099C109.838 57.6472 111.538 53.5691 113.568 49.591C115.717 45.3802 115.834 40.986 113.459 36.8694C111.131 32.8338 109.666 28.504 109.765 24.0349C109.844 20.4294 111.044 16.7632 112.255 13.2904C113.302 10.2874 115.234 7.64002 115.091 4.19589C115.039 2.93404 116.294 1.6212 117.035 0.165815C118.394 0 119.669 0 121.184 0Z" fill="rgb(235,229,221)" fill-rule="nonzero" />
		<path id="Vector 51" d="M185.173 207.494C182.97 210.156 180.766 212.819 178.319 215.707C175.218 218.61 172.407 221.337 169.497 223.956C157.041 235.17 142.396 240.639 125.636 240.415C122.072 240.368 118.511 240.102 114.808 239.79C101.86 237.789 90.989 231.934 81.435 223.458C68.6026 212.074 59.7209 197.905 53.39 182.185C45.4414 162.447 41.4634 141.852 41.7978 120.563C43.7372 121.162 45.4697 121.745 47.2174 122.278C61.4599 126.624 76.095 128.874 90.8951 129.923C100.452 130.601 110.055 130.624 119.88 130.993C130.898 130.383 141.699 129.978 152.446 128.992C164.663 127.872 176.757 125.731 188.359 121.65C193.288 119.916 197.863 117.181 202.771 114.875C206.432 112.79 209.061 110.015 210.285 106.068C210.294 110.421 210.304 114.773 210.308 119.615C210.131 124.676 209.96 129.248 209.796 134.044C209.442 137.689 209.228 141.132 208.691 144.524C206.829 156.271 204.295 167.886 199.791 178.921C197.056 185.623 193.592 192.028 190.307 198.672C189.472 199.886 188.748 200.973 188.106 202.107C187.1 203.886 186.148 205.696 185.173 207.494Z" fill="rgb(35,117,229)" fill-rule="nonzero" />
		<path id="Vector 52" d="M114.734 239.93C118.304 240.097 121.873 240.365 125.445 240.412C142.243 240.637 156.922 235.128 169.406 223.833C172.322 221.194 175.141 218.447 178.172 215.673C182.205 216.328 186.083 217.002 189.934 217.803C203.769 220.681 217.694 223.354 229.703 231.516C232.376 233.333 234.744 235.633 235.07 239.134C235.196 240.491 234.751 241.9 234.371 243.532C234.06 243.897 233.988 244.039 233.961 244.203C233.961 244.203 233.975 244.169 233.989 244.181C230.569 245.111 227.168 246.185 223.696 246.918C212.833 249.212 201.997 251.727 191.043 253.48C182.919 254.78 174.64 255.36 166.408 255.673C150.722 256.268 135.018 256.764 119.326 256.676C109.617 256.621 99.8802 255.719 90.2175 254.642C79.021 253.395 67.8224 251.914 56.7525 249.845C44.7529 247.603 32.9105 244.516 22.602 237.44C19.9122 235.594 17.3806 233.451 17.021 229.902C16.8807 228.517 17.3358 227.07 17.542 225.46C24.9483 223.129 32.2831 220.791 39.7339 218.918C44.6977 217.671 49.8271 217.086 55.2655 216.269C58.4638 218.945 61.2484 221.59 64.0999 224.16C71.6859 230.998 80.3925 235.883 90.2916 238.296C95.0652 239.46 100.03 239.99 104.942 240.373C108.175 240.625 111.468 240.105 114.734 239.93Z" fill="rgb(42,128,247)" fill-rule="nonzero" />
		<path id="Vector 53" d="M210.2 105.464C208.967 109.664 206.342 112.451 202.55 114.422C195.603 111.612 189.159 108.151 182.283 106.369C172.596 103.858 162.645 102.128 152.703 100.92C142.642 99.6972 132.456 99.5163 122.082 98.8417C99.6609 98.4335 77.6573 99.9523 56.0139 105.151C47.376 107.225 38.856 109.666 31.1025 114.554C27.3919 112.73 25.0826 109.826 23.5173 106.251C22.591 100.373 26.0967 96.8729 30.3843 94.1159C39.9031 87.9951 50.6474 85.149 61.604 83.0791C68.7291 81.733 75.89 80.5491 83.0675 79.5238C87.4293 78.9007 91.8472 78.5093 96.2505 78.379C106.593 78.0727 116.962 77.5084 127.283 77.941C138.148 78.3964 148.978 79.8039 159.807 80.9546C169.997 82.0376 179.94 84.3444 189.634 87.6887C195.657 89.7663 201.508 92.1918 206.295 96.6065C208.806 98.9227 210.802 101.487 210.2 105.464Z" fill="rgb(35,117,229)" fill-rule="nonzero" />
		<path id="Vector 54" d="M23.4083 106.776C24.9769 110.097 27.2847 112.989 31.0655 114.972C34.7701 116.925 38.224 118.686 41.6779 120.448C41.5437 141.786 45.5122 162.391 53.4419 182.137C59.7577 197.865 68.6182 212.041 81.42 223.43C90.9512 231.91 101.796 237.768 114.714 239.77C111.603 240.089 108.326 240.607 105.108 240.356C100.219 239.975 95.277 239.449 90.5255 238.294C80.6725 235.897 72.0064 231.045 64.4557 224.254C61.6174 221.701 58.8458 219.074 55.8807 216.404C48.5741 208.267 42.8179 199.261 38.2586 189.55C32.3069 176.873 28.4183 163.546 25.8829 149.734C23.2799 135.555 23.2848 121.308 23.4083 106.776Z" fill="rgb(0,86,184)" fill-rule="nonzero" />
		<path id="Vector 55" d="M185.524 207.187C186.269 205.383 187.215 203.571 188.217 201.791C188.855 200.656 189.576 199.568 190.62 198.372C193.922 197.769 196.874 197.303 199.806 196.731C217.364 193.306 232.544 185.665 243.109 170.723C249.289 161.983 254.056 152.582 253.132 141.164C252.284 130.689 240.461 119.502 229.18 121.233C220.746 122.528 214.056 125.864 209.79 133.46C209.961 128.886 210.131 124.311 210.306 119.49C215.08 116.291 220.134 114.066 225.674 112.996C232.711 111.637 239.323 112.742 245.549 116.257C257.134 122.798 263.305 134.926 261.768 147.667C260.493 158.24 256.473 168.032 250.574 177.02C243.262 188.16 232.772 195.029 220.732 199.794C210.649 203.784 200.155 206.118 189.299 206.69C188.111 206.753 186.933 207.021 185.524 207.187Z" fill="rgb(35,117,229)" fill-rule="nonzero" />
		<path id="Vector 56" d="M138.155 67.8681C133.37 68.0874 131.55 66.0275 132.798 61.5505C133.618 58.608 134.882 55.753 136.263 53.0238C137.654 50.2744 138.201 47.7833 136.296 45.0422C131.399 37.9963 131.125 30.8677 135.963 23.5877C136.822 22.2941 137.175 20.5816 137.498 19.0065C137.991 16.5981 139.834 14.7703 142.002 14.8523C144.261 14.9377 145.565 16.7449 145.756 19.4716C146.024 23.2828 144.408 26.388 142.464 29.3618C140.462 32.4245 140.276 35.3297 142.401 38.4221C146.131 43.8509 146.917 49.733 144.449 55.898C143.37 58.591 141.985 61.1608 140.673 63.7517C139.971 65.1378 139.127 66.4498 138.155 67.8681Z" fill="rgb(235,229,221)" fill-rule="nonzero" />
		<path id="Vector 57" d="M88.3067 65.8154C86.9915 61.0914 88.6271 57.1553 91.0509 53.54C93.1106 50.4678 93.3417 47.4569 91.289 44.4889C87.9552 39.6687 86.9969 34.495 88.489 28.8532C88.7702 27.7899 89.3314 26.8011 89.7756 25.7834C90.8569 23.306 92.0904 20.8843 92.9883 18.341C93.8096 16.0143 95.5955 14.5013 97.6225 14.9188C99.7762 15.3623 101.716 17.7113 101.165 19.8505C100.384 22.8785 99.6392 26.1186 97.975 28.6627C95.5223 32.4121 95.6558 35.7236 97.982 39.1678C102.313 45.5797 102.079 51.8995 98.0991 58.3865C97.118 59.9856 96.9222 62.0587 96.0806 63.7706C95.4037 65.1476 94.5489 66.7813 93.3202 67.4515C91.5811 68.4001 89.6756 67.7586 88.3067 65.8154Z" fill="rgb(235,229,221)" fill-rule="nonzero" />
		<path id="Vector 58" d="M233.763 243.958C233.559 243.771 233.716 243.543 234.197 243.25C234.544 243.468 234.412 243.711 233.763 243.958Z" fill="rgb(167,137,102)" fill-rule="nonzero" />
		<path id="Vector 59" d="M122.068 98.9976C132.25 99.6378 142.487 99.8196 152.598 101.048C162.589 102.262 172.589 103.999 182.324 106.522C189.234 108.313 195.71 111.789 202.519 114.639C197.906 117.065 193.316 119.826 188.371 121.576C176.732 125.695 164.599 127.857 152.344 128.987C141.562 129.982 130.726 130.392 119.606 130.818C119.09 130.431 118.894 130.179 118.673 130.156C110.036 129.246 101.369 128.563 92.7643 127.411C81.778 125.941 71.066 123.223 60.7526 119.07C58.813 118.289 57.3536 117.214 57.3567 114.656C57.3598 112.037 59.1345 111.285 60.9131 110.745C68.6472 108.397 76.321 105.629 84.226 104.123C94.3541 102.192 104.684 101.331 114.925 99.9977C117.309 99.6874 119.687 99.3321 122.068 98.9976Z" fill="rgb(106,86,61)" fill-rule="nonzero" />
		<path id="Vector 61" d="M121.795 99.0607C119.669 99.4321 117.305 99.7868 114.935 100.097C104.755 101.428 94.4863 102.288 84.4183 104.215C76.5602 105.72 68.9319 108.483 61.2437 110.828C59.4756 111.367 57.7115 112.117 57.7084 114.733C57.7054 117.287 59.1561 118.36 61.0842 119.14C71.3364 123.286 81.9849 126.001 92.906 127.469C101.46 128.618 110.075 129.3 118.661 130.21C118.88 130.233 119.076 130.484 119.348 130.818C109.857 130.688 100.28 130.664 90.7494 129.981C75.9899 128.923 61.3949 126.656 47.1914 122.276C45.4485 121.738 43.7208 121.15 41.7867 120.547C38.1347 118.733 34.682 116.958 31.1567 115.015C38.6519 109.919 47.1634 107.47 55.7925 105.389C77.4142 100.175 99.3957 98.6512 121.795 99.0607Z" fill="rgb(87,70,51)" fill-rule="nonzero" />
		<g id="qr-code 1" clip-path="url(#clipPath_0)" customFrame="url(#clipPath_0)">
			<rect id="qr-code 1" width="53.000000" height="53.000000" x="98.000000" y="152.000000" />
			<path id="Vector 67" d="M104.625 158.625L111.25 158.625L111.25 165.25L104.625 165.25L104.625 158.625Z" fill="rgb(255,255,255)" fill-rule="nonzero" />
			<path id="Vector 68" d="M117.875 152L117.875 171.875L98 171.875L98 152L117.875 152ZM114.562 155.312L101.312 155.312L101.312 168.562L114.562 168.562L114.562 155.312ZM111.25 191.75L104.625 191.75L104.625 198.375L111.25 198.375L111.25 191.75Z" fill="rgb(255,255,255)" fill-rule="nonzero" />
			<path id="Vector 69" d="M117.875 185.125L117.875 205L98 205L98 185.125L117.875 185.125ZM101.312 188.438L101.312 201.688L114.562 201.688L114.562 188.438L101.312 188.438ZM137.75 158.625L144.375 158.625L144.375 165.25L137.75 165.25L137.75 158.625Z" fill="rgb(255,255,255)" fill-rule="nonzero" />
			<path id="Vector 70" d="M131.125 152L131.125 171.875L151 171.875L151 152L131.125 152ZM147.688 155.312L147.688 168.562L134.438 168.562L134.438 155.312L147.688 155.312ZM124.5 155.312L124.5 152L127.812 152L127.812 158.625L124.5 158.625L124.5 165.25L121.188 165.25L121.188 155.312L124.5 155.312ZM124.5 171.875L124.5 165.25L127.812 165.25L127.812 171.875L124.5 171.875ZM117.875 178.5L117.875 175.188L121.188 175.188L121.188 171.875L124.5 171.875L124.5 178.5L127.812 178.5L127.812 175.188L144.375 175.188L144.375 178.5L131.125 178.5L131.125 181.812L121.188 181.812L121.188 178.5L117.875 178.5ZM117.875 178.5L117.875 181.812L104.625 181.812L104.625 178.5L101.312 178.5L101.312 181.812L98 181.812L98 175.188L107.938 175.188L107.938 178.5L117.875 178.5ZM151 181.812L147.688 181.812L147.688 175.188L151 175.188L151 181.812ZM147.688 181.812L144.375 181.812L144.375 188.438L151 188.438L151 185.125L147.688 185.125L147.688 181.812ZM134.438 181.812L141.062 181.812L141.062 185.125L137.75 185.125L137.75 188.438L134.438 188.438L134.438 181.812ZM141.062 191.75L141.062 188.438L137.75 188.438L137.75 191.75L134.438 191.75L134.438 195.062L127.812 195.062L127.812 198.375L137.75 198.375L137.75 191.75L141.062 191.75ZM141.062 191.75L151 191.75L151 195.062L144.375 195.062L144.375 198.375L141.062 198.375L141.062 191.75ZM127.812 188.438L127.812 191.75L131.125 191.75L131.125 185.125L121.188 185.125L121.188 188.438L127.812 188.438Z" fill="rgb(255,255,255)" fill-rule="nonzero" />
			<path id="Vector 71" d="M121.188 191.75L124.5 191.75L124.5 201.688L137.75 201.688L137.75 205L121.188 205L121.188 191.75ZM151 198.375L151 205L141.062 205L141.062 201.688L147.688 201.688L147.688 198.375L151 198.375Z" fill="rgb(255,255,255)" fill-rule="nonzero" />
		</g>
	</g>
</svg>
