<svg viewBox="0 0 474 559" xmlns="http://www.w3.org/2000/svg" xmlns:xlink="http://www.w3.org/1999/xlink" width="474.000000" height="559.000000" fill="none" customFrame="#000000">
	<defs>
		<clipPath id="clipPath_0">
			<rect width="346.000000" height="346.000000" x="64.000000" y="64.000000" fill="rgb(255,255,255)" />
		</clipPath>
	</defs>
	<g id="Group 23">
		<g id="scan 1" clip-path="url(#clipPath_0)" customFrame="url(#clipPath_0)">
			<rect id="scan 1" width="346.000000" height="346.000000" x="64.000000" y="64.000000" />
			<g id="Group 3">
				<path id="Vector 1" d="M81.2324 74.4746C112.77 74.362 144.306 74.4746 175.842 74.8125C178.883 76.0514 181.023 78.1914 182.262 81.2324C182.712 112.769 182.712 144.305 182.262 175.842C181.023 178.883 178.883 181.023 175.842 182.262C144.305 182.712 112.769 182.712 81.2324 182.262C78.1914 181.023 76.0514 178.883 74.8125 175.842C74.362 144.305 74.362 112.769 74.8125 81.2324C76.1791 78.1779 78.3191 75.9253 81.2324 74.4746ZM96.0996 96.0996C117.725 96.0996 139.35 96.0996 160.975 96.0996C160.975 117.725 160.975 139.35 160.975 160.975C139.35 160.975 117.725 160.975 96.0996 160.975C96.0996 139.35 96.0996 117.725 96.0996 96.0996Z" opacity="0.999000013" fill="rgb(35,117,229)" fill-rule="evenodd" />
			</g>
			<g id="Group 4">
				<path id="Vector 2" d="M205.576 74.4746C212.239 73.0214 217.083 75.274 220.105 81.2324C220.443 98.8013 220.556 116.372 220.443 133.943C229.006 133.831 237.566 133.943 246.123 134.281C252.193 137.304 254.333 142.147 252.543 148.811C251.304 151.852 249.164 153.992 246.123 155.23C232.607 155.681 219.092 155.681 205.576 155.23C202.535 153.992 200.395 151.852 199.156 148.811C198.705 126.285 198.705 103.758 199.156 81.2324C200.523 78.1779 202.663 75.9253 205.576 74.4746Z" opacity="0.986999989" fill="rgb(35,117,229)" fill-rule="evenodd" />
			</g>
			<g id="Group 5">
				<path id="Vector 3" d="M238.014 74.4746C249.73 74.362 261.443 74.4747 273.154 74.8125C279.224 77.8353 281.364 82.6784 279.574 89.3418C278.336 92.3828 276.195 94.5228 273.154 95.7617C266.401 96.0995 259.643 96.2121 252.881 96.0996C252.993 102.861 252.881 109.619 252.543 116.373C249.52 122.443 244.677 124.583 238.014 122.793C234.973 121.554 232.832 119.414 231.594 116.373C231.143 104.66 231.143 92.9459 231.594 81.2324C232.96 78.1779 235.1 75.9253 238.014 74.4746Z" opacity="0.980000019" fill="rgb(35,117,229)" fill-rule="evenodd" />
			</g>
			<g id="Group 6">
				<path id="Vector 4" d="M297.482 74.4746C329.02 74.362 360.556 74.4746 392.092 74.8125C395.133 76.0514 397.273 78.1914 398.512 81.2324C398.962 112.769 398.962 144.305 398.512 175.842C397.273 178.883 395.133 181.023 392.092 182.262C360.555 182.712 329.019 182.712 297.482 182.262C294.441 181.023 292.301 178.883 291.062 175.842C290.612 144.305 290.612 112.769 291.062 81.2324C292.429 78.1779 294.569 75.9253 297.482 74.4746ZM312.35 96.0996C333.975 96.0996 355.6 96.0996 377.225 96.0996C377.225 117.725 377.225 139.35 377.225 160.975C355.6 160.975 333.975 160.975 312.35 160.975C312.35 139.35 312.35 117.725 312.35 96.0996Z" opacity="0.999000013" fill="rgb(35,117,229)" fill-rule="evenodd" />
			</g>
			<g id="Group 7">
				<path id="Vector 5" d="M265.045 128.537C271.708 127.084 276.551 129.336 279.574 135.295C280.025 148.811 280.025 162.326 279.574 175.842C278.336 178.883 276.195 181.023 273.154 182.262C248.826 182.712 224.498 182.712 200.17 182.262C194.1 179.239 191.96 174.396 193.75 167.732C194.989 164.691 197.129 162.551 200.17 161.312C219.541 160.975 238.913 160.862 258.287 160.975C258.174 152.412 258.287 143.852 258.625 135.295C259.991 132.24 262.132 129.988 265.045 128.537Z" opacity="0.987999976" fill="rgb(35,117,229)" fill-rule="evenodd" />
			</g>
			<g id="Group 22">
				<path id="Vector 5" d="M71.9064 0.427395C78.5696 -1.0258 83.413 1.22678 86.4357 7.18521C86.8865 20.7008 86.8865 34.2165 86.4357 47.7321C85.197 50.7731 83.0568 52.9133 80.0158 54.152C55.6877 54.6028 31.3596 54.6028 7.03144 54.152C0.961578 51.1292 -1.17863 46.2859 0.611519 39.6227C1.85022 36.5817 3.99043 34.4415 7.03144 33.2028C26.4027 32.8649 45.7747 32.752 65.1486 32.8649C65.0358 24.3021 65.1486 15.742 65.4865 7.18521C66.853 4.13068 68.9931 1.87809 71.9064 0.427395Z" fill="rgb(255,255,255)" fill-rule="evenodd" transform="matrix(-0.692019,0.721879,0.721879,0.692019,246.366,175.504)" />
			</g>
			<g id="Group 8">
				<path id="Vector 6" d="M81.2324 193.412C87.8956 191.959 92.7387 194.212 95.7617 200.17C96.0996 219.541 96.2122 238.913 96.0996 258.287C104.663 258.174 113.222 258.287 121.779 258.625C127.849 261.648 129.989 266.491 128.199 273.154C126.96 276.195 124.82 278.336 121.779 279.574C108.264 280.025 94.748 280.025 81.2324 279.574C78.1914 278.336 76.0514 276.195 74.8125 273.154C74.362 248.826 74.362 224.498 74.8125 200.17C76.1791 197.115 78.3191 194.863 81.2324 193.412Z" opacity="0.987999976" fill="rgb(35,117,229)" fill-rule="evenodd" />
			</g>
			<g id="Group 9">
				<path id="Vector 7" d="M297.482 193.412C304.146 191.959 308.989 194.212 312.012 200.17C312.35 219.541 312.462 238.913 312.35 258.287C322.038 258.174 331.725 258.287 341.408 258.625C347.768 262.236 349.683 267.529 347.152 274.506C345.864 276.897 343.949 278.587 341.408 279.574C326.766 280.025 312.125 280.025 297.482 279.574C294.441 278.336 292.301 276.195 291.062 273.154C290.612 248.826 290.612 224.498 291.062 200.17C292.429 197.115 294.569 194.863 297.482 193.412Z" opacity="0.987999976" fill="rgb(35,117,229)" fill-rule="evenodd" />
			</g>
			<g id="Group 10">
				<path id="Vector 8" d="M108.264 198.818C130.791 198.706 153.317 198.818 175.842 199.156C181.912 202.179 184.052 207.022 182.262 213.686C181.023 216.727 178.883 218.867 175.842 220.105C158.273 220.443 140.703 220.556 123.131 220.443C123.243 229.006 123.131 237.566 122.793 246.123C119.77 252.193 114.927 254.333 108.264 252.543C105.223 251.304 103.083 249.164 101.844 246.123C101.393 232.607 101.393 219.092 101.844 205.576C103.21 202.522 105.35 200.269 108.264 198.818Z" opacity="0.986999989" fill="rgb(35,117,229)" fill-rule="evenodd" />
			</g>
			<g id="Group 12">
				<path id="Vector 10" d="M327.893 198.818C349.293 198.706 370.693 198.818 392.092 199.156C398.162 202.179 400.302 207.022 398.512 213.686C397.273 216.727 395.133 218.867 392.092 220.105C375.874 220.443 359.656 220.556 343.436 220.443C343.548 228.33 343.436 236.215 343.098 244.096C340.685 251.555 335.617 254.371 327.893 252.543C324.562 251.241 322.423 248.876 321.473 245.447C321.022 232.382 321.022 219.317 321.473 206.252C322.553 202.81 324.693 200.331 327.893 198.818Z" opacity="0.978999972" fill="rgb(35,117,229)" fill-rule="evenodd" />
			</g>
			<g id="Group 13">
				<path id="Vector 11" d="M140.701 231.256C152.417 231.143 164.131 231.256 175.842 231.594C178.883 232.832 181.023 234.973 182.262 238.014C182.712 249.727 182.712 261.441 182.262 273.154C179.239 279.224 174.396 281.364 167.732 279.574C164.691 278.336 162.551 276.195 161.313 273.154C160.975 266.401 160.862 259.643 160.975 252.881C154.213 252.993 147.455 252.881 140.701 252.543C134.631 249.52 132.491 244.677 134.281 238.014C135.648 234.959 137.788 232.707 140.701 231.256Z" opacity="0.980000019" fill="rgb(35,117,229)" fill-rule="evenodd" />
			</g>
			<g id="Group 14">
				<path id="Vector 12" d="M358.303 231.256C369.568 231.143 380.831 231.256 392.092 231.594C395.133 232.832 397.273 234.973 398.512 238.014C398.962 249.727 398.962 261.441 398.512 273.154C395.489 279.224 390.646 281.364 383.982 279.574C380.941 278.336 378.801 276.195 377.562 273.154C377.225 266.401 377.112 259.643 377.225 252.881C370.913 252.993 364.606 252.881 358.303 252.543C351.1 248.075 349.636 242.106 353.91 234.635C355.482 233.576 356.946 232.451 358.303 231.256Z" opacity="0.978999972" fill="rgb(35,117,229)" fill-rule="evenodd" />
			</g>
			<g id="Group 15">
				<path id="Vector 13" d="M81.2324 290.725C112.77 290.612 144.306 290.725 175.842 291.062C178.883 292.301 181.023 294.441 182.262 297.482C182.712 329.019 182.712 360.555 182.262 392.092C181.023 395.133 178.883 397.273 175.842 398.512C144.305 398.962 112.769 398.962 81.2324 398.512C78.1914 397.273 76.0514 395.133 74.8125 392.092C74.362 360.555 74.362 329.019 74.8125 297.482C76.1791 294.428 78.3191 292.176 81.2324 290.725ZM96.0996 312.35C117.725 312.35 139.35 312.35 160.975 312.35C160.975 333.975 160.975 355.6 160.975 377.225C139.35 377.225 117.725 377.225 96.0996 377.225C96.0996 355.6 96.0996 333.975 96.0996 312.35Z" opacity="0.999000013" fill="rgb(35,117,229)" fill-rule="evenodd" />
			</g>
			<g id="Group 16">
				<path id="Vector 14" d="M205.576 290.725C229.906 290.612 254.234 290.725 278.561 291.062C284.63 294.085 286.771 298.929 284.98 305.592C283.742 308.633 281.602 310.773 278.561 312.012C259.189 312.35 239.817 312.462 220.443 312.35C220.556 320.912 220.443 329.473 220.105 338.029C217.083 344.099 212.239 346.239 205.576 344.449C202.535 343.21 200.395 341.07 199.156 338.029C198.705 324.514 198.705 310.998 199.156 297.482C200.523 294.428 202.663 292.176 205.576 290.725Z" opacity="0.987999976" fill="rgb(35,117,229)" fill-rule="evenodd" />
			</g>
			<g id="Group 17">
				<path id="Vector 15" d="M302.889 290.725C309.552 289.272 314.395 291.524 317.418 297.482C317.756 307.842 317.869 318.204 317.756 328.568C323.842 328.456 329.924 328.568 336.002 328.906C343.141 332.524 345.055 338.043 341.746 345.463C340.732 346.927 339.494 348.166 338.029 349.18C326.361 350.277 314.647 350.503 302.889 349.855C299.848 348.617 297.707 346.477 296.469 343.436C296.018 328.118 296.018 312.8 296.469 297.482C297.835 294.428 299.975 292.176 302.889 290.725Z" opacity="0.981999993" fill="rgb(35,117,229)" fill-rule="evenodd" />
			</g>
			<g id="Group 18">
				<path id="Vector 16" d="M353.572 290.725C366.414 290.612 379.254 290.725 392.092 291.062C395.133 292.301 397.273 294.441 398.512 297.482C398.962 329.019 398.962 360.555 398.512 392.092C395.489 398.162 390.646 400.302 383.982 398.512C380.941 397.273 378.801 395.133 377.562 392.092C377.225 365.512 377.112 338.931 377.225 312.35C369.338 312.462 361.453 312.35 353.572 312.012C347.502 308.989 345.362 304.146 347.152 297.482C348.519 294.428 350.659 292.176 353.572 290.725Z" opacity="0.989000022" fill="rgb(35,117,229)" fill-rule="evenodd" />
			</g>
			<g id="Group 19">
				<path id="Vector 17" d="M232.607 317.756C246.125 317.643 259.641 317.756 273.154 318.094C276.195 319.332 278.336 321.473 279.574 324.514C280.025 347.039 280.025 369.566 279.574 392.092C276.551 398.162 271.708 400.302 265.045 398.512C262.004 397.273 259.864 395.133 258.625 392.092C258.287 374.523 258.174 356.953 258.287 339.381C249.724 339.494 241.164 339.381 232.607 339.043C226.538 336.02 224.397 331.177 226.188 324.514C227.554 321.459 229.694 319.207 232.607 317.756Z" opacity="0.986999989" fill="rgb(35,117,229)" fill-rule="evenodd" />
			</g>
			<g id="Group 20">
				<path id="Vector 18" d="M359.654 326.541C366.531 325.527 371.149 328.23 373.508 334.65C373.959 353.347 373.959 372.043 373.508 390.74C372.541 394.633 370.176 397.224 366.412 398.512C345.238 398.962 324.063 398.962 302.889 398.512C296.819 395.489 294.679 390.646 296.469 383.982C297.707 380.941 299.848 378.801 302.889 377.562C319.106 377.225 335.325 377.112 351.545 377.225C351.432 363.031 351.545 348.84 351.883 334.65C353.247 330.697 355.837 327.994 359.654 326.541Z" opacity="0.976999998" fill="rgb(35,117,229)" fill-rule="evenodd" />
			</g>
			<g id="Group 21">
				<path id="Vector 19" d="M232.607 350.193C239.271 348.74 244.114 350.993 247.137 356.951C247.587 368.664 247.587 380.378 247.137 392.092C245.898 395.133 243.758 397.273 240.717 398.512C229.003 398.962 217.289 398.962 205.576 398.512C199.506 395.489 197.366 390.646 199.156 383.982C200.395 380.941 202.535 378.801 205.576 377.562C212.33 377.225 219.088 377.112 225.85 377.225C225.737 370.463 225.85 363.705 226.188 356.951C227.554 353.897 229.694 351.644 232.607 350.193Z" opacity="0.980000019" fill="rgb(35,117,229)" fill-rule="evenodd" />
			</g>
		</g>
		<path id="" d="M72.793 440.951L95.3281 440.951Q96.4883 440.951 97.209 441.742Q97.9297 442.533 97.9297 443.816L97.9297 493L90.3711 493Q87.9277 493 87.1719 492.209Q86.416 491.418 86.416 488.904L86.416 449.951L74.8848 449.951Q72.793 449.951 72.793 446.488L72.793 440.951ZM100.812 440.951L112.326 440.951Q114.418 440.951 114.418 444.396L114.418 449.951L100.812 449.951L100.812 440.951ZM131.762 457L141.851 457Q149.691 457 149.691 464.699L149.691 493L141.482 493Q140.34 493 139.619 492.209Q138.898 491.418 138.898 490.117L138.898 464.559Q138.898 463.416 138.353 462.906Q137.808 462.396 135.945 462.396L131.762 462.396L131.762 457ZM119.176 440.951L123.553 440.951Q126.734 440.951 128.351 442.498Q129.969 444.045 129.969 446.488L129.969 493L121.76 493Q120.599 493 119.879 492.209Q119.176 491.418 119.176 490.117L119.176 440.951ZM175.402 462.396L171.517 462.396Q169.285 462.396 168.986 463.188Q168.564 464.137 168.564 465.859L168.564 484.141Q168.564 484.281 168.564 485.002Q168.564 485.723 168.705 486.232Q168.986 487.604 171.517 487.604L175.402 487.604L175.402 493L168.423 493Q165.681 493 163.941 492.754Q162.218 492.49 160.917 491.629Q159.634 490.768 158.984 489.73Q158.333 488.676 157.912 486.373Q157.402 483.139 157.402 477.303Q157.402 471.467 157.472 469.428Q157.542 467.371 157.718 465.068Q157.912 462.766 158.369 461.693Q158.843 460.604 159.599 459.496Q160.355 458.371 161.568 457.932Q164.24 457 168.423 457L175.402 457L175.402 462.396ZM191.591 492.49Q191.591 493 191.31 493L185.404 493Q181.378 493 179.462 491.137Q177.564 489.256 177.564 485.002L177.564 457L180.517 457Q185.052 457 186.705 459.127Q188.357 461.254 188.357 464.699L188.357 484.861Q188.357 487.094 189.289 487.393Q189.798 487.604 190.66 487.604L191.029 487.604Q191.591 487.604 191.591 488.096L191.591 492.49ZM209.882 457L219.971 457Q227.811 457 227.811 464.699L227.811 493L219.602 493Q218.46 493 217.739 492.209Q217.018 491.418 217.018 490.117L217.018 464.559Q217.018 463.416 216.473 462.906Q215.928 462.396 214.065 462.396L209.882 462.396L209.882 457ZM197.296 457L201.673 457Q204.854 457 206.471 458.547Q208.089 460.094 208.089 462.537L208.089 493L199.88 493Q198.719 493 197.999 492.209Q197.296 491.418 197.296 490.117L197.296 457ZM236.032 440.951L240.409 440.951Q243.59 440.951 245.207 442.498Q246.825 444.045 246.825 446.488L246.825 493L238.616 493Q237.455 493 236.735 492.209Q236.032 491.418 236.032 490.117L236.032 440.951ZM255.455 476.652L263.664 476.652Q264.825 476.652 265.545 477.443Q266.266 478.234 266.266 479.535L266.266 493L258.057 493Q256.897 493 256.176 492.209Q255.455 491.418 255.455 490.117L255.455 476.652ZM265.545 457L265.545 466.932Q265.545 474.648 257.688 474.648L248.618 474.648L248.618 469.234L252.52 469.234Q254.032 469.234 254.383 468.777Q254.752 468.303 254.752 467.072L254.752 459.953Q254.752 457 257.336 457L265.545 457ZM298.311 440.951L298.311 461.465Q298.311 462.607 298.663 463.082Q299.032 463.557 300.315 463.557L302.917 463.557L302.917 470.395L291.684 470.395Q288.942 470.395 287.852 469.129Q286.78 467.863 286.78 465.209L286.78 444.326Q286.78 440.951 290.753 440.951L298.311 440.951ZM310.036 493L301.036 493Q298.593 493 297.837 492.209Q297.081 491.418 297.081 488.904L297.081 477.373Q297.081 474.859 297.837 474.068Q298.593 473.277 301.036 473.277L310.036 473.277L310.036 493ZM309.456 440.951L317.032 440.951Q319.177 440.951 320.073 441.812Q320.987 442.674 320.987 445.047L320.987 465.35Q320.987 470.395 316.803 470.395L305.8 470.395L305.8 463.557L307.522 463.557Q308.823 463.557 309.139 463.047Q309.456 462.537 309.456 461.465L309.456 440.951ZM341.078 457L348.057 457Q350.799 457 352.521 457.264Q354.244 457.51 355.545 458.371Q356.846 459.232 357.478 460.287Q358.129 461.324 358.498 463.627Q359.078 466.861 359.078 472.697Q359.078 478.533 358.99 480.59Q358.92 482.629 358.744 484.932Q358.568 487.234 358.094 488.324Q357.637 489.396 356.881 490.521Q356.125 491.629 354.894 492.068Q352.24 493 348.057 493L347.916 493L347.916 465.859Q347.916 465.719 347.916 464.998Q347.916 464.277 347.846 463.768Q347.476 462.396 344.963 462.396L341.078 462.396L341.078 457ZM338.916 457L338.916 484.141Q338.916 484.281 338.916 485.002Q338.916 485.723 339.057 486.232Q339.338 487.604 341.869 487.604L345.754 487.604L345.754 493L338.775 493Q336.033 493 334.293 492.754Q332.57 492.49 331.269 491.629Q329.986 490.768 329.336 489.73Q328.685 488.676 328.264 486.373Q327.754 483.139 327.754 477.303Q327.754 471.467 327.824 469.428Q327.894 467.371 328.07 465.068Q328.264 462.766 328.721 461.693Q329.195 460.604 329.951 459.496Q330.707 458.371 331.92 457.932Q334.592 457 338.775 457L338.916 457ZM366.769 457L374.978 457Q376.139 457 376.859 457.791Q377.58 458.582 377.58 459.883L377.58 485.441Q377.58 486.584 378.107 487.094Q378.652 487.604 380.533 487.604L384.699 487.604L384.699 493L374.627 493Q366.769 493 366.769 485.301L366.769 457ZM400.537 492.49Q400.537 493 400.185 493L392.908 493Q389.744 493 388.127 491.453Q386.51 489.906 386.51 487.463L386.51 457L394.719 457Q395.861 457 396.582 457.791Q397.303 458.582 397.303 459.883L397.303 484.861Q397.303 487.094 398.234 487.393Q398.744 487.604 399.605 487.604L399.974 487.604Q400.537 487.604 400.537 488.096L400.537 492.49Z" fill="rgb(255,255,255)" fill-rule="nonzero" />
		<rect id="Rectangle 2" width="434.000000" height="519.000000" x="20.000000" y="20.000000" rx="20.000000" stroke="rgb(35,117,229)" stroke-width="40" />
	</g>
</svg>
